<svg xmlns="http://www.w3.org/2000/svg" viewBox="0 0 64 64" id="cocktai">
  <path d="M32 52.22c-3.92 0-7.61-1.5-10.43-4.24a14.848 14.848 0 0 1-4.53-10.73c0-2.05.41-4.03 1.21-5.9 1.71-3.98 1.67-8.65-.1-12.81l-.15-.36a1.876 1.876 0 0 1 1.73-2.61h24.56c.63 0 1.22.32 1.57.84.35.53.41 1.19.16 1.77l-.15.36c-1.74 4.09-1.73 8.75.03 13.12.8 1.98 1.16 4.08 1.06 6.24-.33 7.81-6.72 14.09-14.53 14.3-.15.02-.29.02-.43.02zm-9.58-32.89c1.32 4.49 1.09 9.3-.72 13.51-.6 1.4-.9 2.88-.9 4.41 0 3.05 1.2 5.9 3.39 8.03 2.19 2.13 5.07 3.25 8.13 3.17 5.85-.16 10.62-4.86 10.87-10.7.07-1.62-.2-3.19-.8-4.68-1.82-4.52-2.09-9.32-.81-13.74H22.42z"></path>
  <path d="M32 64c-1.04 0-1.88-.84-1.88-1.88V50.33c0-1.04.84-1.88 1.88-1.88s1.88.84 1.88 1.88v11.79c0 1.04-.84 1.88-1.88 1.88z"></path>
  <path d="M37.9 64H26.1c-1.04 0-1.88-.84-1.88-1.88s.84-1.88 1.88-1.88h11.8c1.04 0 1.88.84 1.88 1.88S38.94 64 37.9 64zm-8.36-44.67c-.86 0-1.63-.59-1.83-1.46L25.7 9.16l-9.04-5.68a1.88 1.88 0 0 1-.59-2.6 1.88 1.88 0 0 1 2.6-.59l9.69 6.1c.42.26.72.68.83 1.17l2.19 9.47c.23 1.01-.4 2.02-1.41 2.26-.14.03-.28.04-.43.04zm4.92 0a1.89 1.89 0 0 1-1.84-2.31l2.19-9.47c.11-.48.41-.9.83-1.17l9.69-6.1c.88-.55 2.04-.29 2.6.59.55.88.29 2.04-.59 2.6L38.3 9.16l-2.02 8.72c-.19.86-.97 1.45-1.82 1.45zM28.34 35.78c-1.04 0-1.89-.84-1.89-1.88s.84-1.88 1.88-1.88h.01c1.04 0 1.88.84 1.88 1.88.01 1.03-.84 1.88-1.88 1.88zM34.47 41.84c-1.04 0-1.89-.84-1.89-1.88s.84-1.88 1.88-1.88h.01c1.04 0 1.88.84 1.88 1.88s-.84 1.88-1.88 1.88zM28.34 41.84c-1.04 0-1.89-.84-1.89-1.88s.84-1.88 1.88-1.88h.01c1.04 0 1.88.84 1.88 1.88s-.84 1.88-1.88 1.88z"></path>
</svg>
